<svg xmlns="http://www.w3.org/2000/svg" id="a45f7c2d-22f5-4fdd-85ec-303c19c61eb5" data-name="Layer 1" width="26.8245" height="26.0843" viewBox="0 0 26.8245 26.0843"><path d="M27.4853,9.3167a.9253.9253,0,0,0-.3162-.4365.7444.7444,0,0,0-.4772-.1489H18.0361L14.8345.5986A.9891.9891,0,0,0,14.5.2365a.8166.8166,0,0,0-.89,0,.9872.9872,0,0,0-.3341.3621L10.1877,8.7313l-8.6558.081a.7317.7317,0,0,0-.47.151.9114.9114,0,0,0-.3087.4348.9273.9273,0,0,0-.01.546.8067.8067,0,0,0,.2931.43l7.0833,5.6766L5.81,25.11a.9641.9641,0,0,0,.0309.525.8142.8142,0,0,0,1.2441.4023L14.1687,21.06l7.0833,4.88a.8069.8069,0,0,0,.4674.1465.7352.7352,0,0,0,.5242-.0325.8148.8148,0,0,0,.2951-.4111.9468.9468,0,0,0,.0166-.5325L20.1328,16.1l7.0833-5.8069a.83.83,0,0,0,.2814-.4348A.9453.9453,0,0,0,27.4853,9.3167Zm-8.9108,5.644a.8393.8393,0,0,0-.279.4086.966.966,0,0,0-.0186.5187L20.26,23.2074,14.5936,19.32a.8453.8453,0,0,0-.4675-.1465v.0489a.7817.7817,0,0,0-.4817-.0163L7.9777,23.2074l1.87-7.3683a.9272.9272,0,0,0-.0171-.5119.8021.8021,0,0,0-.28-.399L3.8837,10.4389H10.67a.7836.7836,0,0,0,.4586-.1481.9567.9567,0,0,0,.3205-.4047L13.97,3.1683l2.6208,6.669a.9354.9354,0,0,0,.3279.4022.7663.7663,0,0,0,.4654.1347h6.7717Z" transform="translate(-0.7067 -0.1046)"></path></svg>