<svg xmlns="http://www.w3.org/2000/svg" id="e9a3ebaf-6c6c-4204-90d6-297591a767ee" data-name="Layer 1" width="42.0238" height="28.0422" viewBox="0 0 42.0238 28.0422"><path d="M42.0771,6.8442c-.3125-1.0747-1.5019-3.5195-5.7539-3.0385a5.7034,5.7034,0,0,0-1.763.4933c-4.9668-3.2942-16.2651-7.1448-26.5949,0a5.7059,5.7059,0,0,0-1.7627-.4929C1.9434,3.3257.7617,5.77.4492,6.8442c-.57,1.9605.1441,4.4229,1.4688,5.0674a5.7751,5.7751,0,0,0,2.5722.4351c1.0855.0054,1.2481.0718,1.3267.3579a9.6367,9.6367,0,0,1-.0376,5.604,11.09,11.09,0,0,0-.41,3.1133c.0955,1.8394,2.0149,2.75,3.9642,3.14v2.9895a.75.75,0,0,0,1.5,0V24.7664c.3538.0277.6925.0412,1.0012.0412H30.6914a13.2548,13.2548,0,0,0,1.7-.1163v2.86a.75.75,0,0,0,1.5,0V24.3948c1.6858-.4582,3.1827-1.3549,3.266-2.9729a11.0858,11.0858,0,0,0-.41-3.1133,9.6642,9.6642,0,0,1-.03-5.6289c.0713-.2612.2344-.3276,1.3193-.333a5.7733,5.7733,0,0,0,2.5723-.4351C41.9336,11.2671,42.6475,8.8047,42.0771,6.8442ZM33.1863,5.2007c-2.8053,2.4282-3.6713,7.4138-3.7117,10.728H13.0508c-.04-3.321-.9088-8.32-3.7281-10.7422C18.4955-.8018,28.3831,2.2582,33.1863,5.2007Zm6.7658,5.3623a4.4806,4.4806,0,0,1-1.9238.2837c-1,.0049-2.3691.0117-2.7519,1.4136a11.0333,11.0333,0,0,0,.01,6.3872,9.7825,9.7825,0,0,1,.3731,2.6963c-.07,1.3544-2.9473,1.9638-4.9678,1.9638H11.8345c-2.0205,0-4.897-.6094-4.9673-1.9638a9.7922,9.7922,0,0,1,.3735-2.6963,11.0051,11.0051,0,0,0,.0161-6.3623c-.3891-1.4268-1.7588-1.4336-2.7588-1.4385a4.4809,4.4809,0,0,1-1.9238-.2837c-.48-.2339-1.1138-1.8242-.6846-3.3.4483-1.544,1.8838-2.2212,4.1441-1.9673,4.7715.542,5.5967,8.3853,5.5122,11.3613l-.022.7715H31.002l-.0215-.7715c-.085-2.976.7412-10.82,5.5127-11.3613,2.2646-.2549,3.6953.4238,4.1435,1.9673C41.0654,8.7388,40.4326,10.3291,39.9521,10.563Z" transform="translate(-0.2514 -0.2591)"></path></svg>