<svg xmlns="http://www.w3.org/2000/svg" xmlns:xlink="http://www.w3.org/1999/xlink" id="a8371fd9-ae02-42af-8d31-fa1055d522b3" data-name="Layer 1" width="21.004" height="28.0022" viewBox="0 0 21.004 28.0022"><defs><clipPath id="a3025963-25c8-4db0-b700-13e519267981" transform="translate(0.0023 0)"><rect width="21" height="28" style="fill:none"></rect></clipPath></defs><g style="clip-path:url(#a3025963-25c8-4db0-b700-13e519267981)"><path d="M17.5,10.5a7,7,0,1,0-2.05,4.95A7,7,0,0,0,17.5,10.5Zm-4.7677,5.3893A5.8335,5.8335,0,1,1,15.35,13.7408,5.8343,5.8343,0,0,1,12.7323,15.8893Z" transform="translate(0.0023 0)"></path><path d="M17.5864,18.2309c.1122-.1028.23-.1982.3382-.3063A10.5084,10.5084,0,1,0,3.4,18.23L.034,27.2067a.5828.5828,0,0,0,.1633.6416A.5362.5362,0,0,0,.5823,28a.63.63,0,0,0,.2566-.0933L5.2023,25.725l3.22,2.1467a.6419.6419,0,0,0,.5018.07.5828.5828,0,0,0,.3732-.35l1.2712-3.39,1.1338,3.4016a.56.56,0,0,0,.3617.3616.6068.6068,0,0,0,.5133-.0583l3.22-2.1467,4.3634,2.1817A.6288.6288,0,0,0,20.4172,28a.5363.5363,0,0,0,.385-.1167.5833.5833,0,0,0,.1633-.6416ZM9.9506,22.505,8.4573,26.4833l-2.8817-1.925a.5836.5836,0,0,0-.5833,0L1.6556,26.2267l2.7113-7.23c.103.0744.1937.1631.3.2339a10.4942,10.4942,0,0,0,4.816,1.7141l.5021,1.5064A.585.585,0,0,0,9.9506,22.505ZM8.6792,19.654a9.3332,9.3332,0,1,1,5.3925-.5311A9.3325,9.3325,0,0,1,8.6792,19.654Zm7.328,4.9393a.5838.5838,0,0,0-.5834,0l-2.8583,1.9134L10.72,20.9891a10.4851,10.4851,0,0,0,5.9063-1.9756l2.7181,7.2482Z" transform="translate(0.0023 0)"></path></g></svg>