<svg xmlns="http://www.w3.org/2000/svg" xmlns:xlink="http://www.w3.org/1999/xlink" id="b7e7cf00-b886-46e4-91a3-c9ac12d19715" data-name="Layer 1" width="20.0554" height="30.1164" viewBox="0 0 20.0554 30.1164"><defs><clipPath id="ea803999-cd7b-43db-8517-607926f0b8bc" transform="translate(0.0465 -0.8965)"><rect y="0.8682" width="20" height="30.1318" style="fill:none"></rect></clipPath></defs><g style="clip-path:url(#ea803999-cd7b-43db-8517-607926f0b8bc)"><path d="M19.9781,13.9106a.4272.4272,0,0,0-.1958-.27L9.7551,1.1067a.6278.6278,0,0,0-.8412-.0878.5644.5644,0,0,0-.1256.1757L.2261,17.2565c-.0153.0108-.0349.0141-.0493.0263a.6279.6279,0,0,0-.1757.72.6234.6234,0,0,0,.0807.1172c.0036.0074.0021.0164.006.0236.0074.0121.0221.0175.03.0291.0125.0141.0181.0332.0318.0462L10.6191,30.6382A.6137.6137,0,0,0,10.9357,31a.7414.7414,0,0,0,.2762,0,.6152.6152,0,0,0,.565-.2887L19.9376,14.39a.6145.6145,0,0,0,.0405-.4793ZM9.14,3.1908,12.9064,17.19H1.67Zm1.7193,25.7753L1.9734,18.4451H12.9517ZM12.75,25.9778,14.3175,18.14l3.531-2.3593Zm1.3616-9.19L10.7218,4.233l7.7339,9.6546Z" transform="translate(0.0465 -0.8965)"></path></g></svg>