<svg xmlns="http://www.w3.org/2000/svg" xmlns:xlink="http://www.w3.org/1999/xlink" id="add94ea5-6b3d-4bae-9bd7-4d1bc24680ba" data-name="Layer 1" width="35" height="29.1667" viewBox="0 0 35 29.1667"><defs><clipPath id="a29e3a66-285e-441e-a2a6-d4c4b9283567" transform="translate(0 -0.8333)"><rect y="0.8333" width="35" height="29.1667" style="fill:none"></rect></clipPath></defs><g style="clip-path:url(#a29e3a66-285e-441e-a2a6-d4c4b9283567)"><path d="M34.3593,5.849a2.1875,2.1875,0,0,0-1.5468-.6407H23.3333V3.0208A2.1875,2.1875,0,0,0,21.1458.8333H13.8542a2.1875,2.1875,0,0,0-2.1875,2.1875V5.2083H2.1875A2.1875,2.1875,0,0,0,0,7.3958V27.8125A2.1875,2.1875,0,0,0,2.1875,30h30.625A2.1875,2.1875,0,0,0,35,27.8125V7.3958A2.1877,2.1877,0,0,0,34.3593,5.849ZM13.125,3.0208a.7293.7293,0,0,1,.7292-.7292h7.2916a.7293.7293,0,0,1,.7292.7292V5.2083h-8.75ZM33.5417,27.8125a.7291.7291,0,0,1-.7292.7291H2.1875a.7291.7291,0,0,1-.7292-.7291V15.4166h4.375v3.6459a.7291.7291,0,0,0,.7292.7291h4.375a.7291.7291,0,0,0,.7292-.7291V15.4166H23.3333v3.6459a.7291.7291,0,0,0,.7292.7291h4.375a.7291.7291,0,0,0,.7292-.7291V15.4166h4.375Zm-26.25-9.4792V15.4166h2.9166v2.9167Zm17.5,0V15.4166h2.9166v2.9167Zm8.75-4.375H1.4583V7.3958a.7293.7293,0,0,1,.7292-.7292h30.625a.7293.7293,0,0,1,.7292.7292Z" transform="translate(0 -0.8333)"></path></g></svg>