<svg xmlns="http://www.w3.org/2000/svg" id="baa0f6c6-85b7-4b1c-b42f-a85f2f042b63" data-name="Layer 1" width="27.4004" height="30.4004" viewBox="0 0 27.4004 30.4004"><path d="M7.9951,15.0049a.7.7,0,0,0-.99.99l5,5a.7.7,0,0,0,.99,0l9-9a.7.7,0,0,0-.99-.99L12.5,19.51Z" transform="translate(-0.7998 -0.7998)"></path><path d="M27.6953,4.6079l-13-3.78a.6993.6993,0,0,0-.3906,0l-13,3.78A.7.7,0,0,0,.8,5.28V19.15c0,5.8887,9.2671,10.72,13.4946,12.0185A.7.7,0,0,0,14.5,31.2a.6761.6761,0,0,0,.2017-.03C19.4082,29.7529,28.2,24.7715,28.2,19.15V5.28A.7006.7006,0,0,0,27.6953,4.6079ZM26.8,19.15c0,4.3926-7.1982,9.0166-12.2978,10.6162C9.4,28.1357,2.2,23.4941,2.2,19.15V5.8057L14.5,2.229,26.8,5.8057Z" transform="translate(-0.7998 -0.7998)"></path></svg>